include "include/hUGE.inc"

SECTION "Song Data - Moonlight Sonata", ROMX

moonlight::
db 5
dw order_cnt
dw order1, order2, order3, order4
dw duty_instruments, wave_instruments, noise_instruments
dw routines
dw waves

order_cnt: db 40
order1: dw P0,P4,P7,P10,P13,P16,P19,P20,P23,P26,P29,P32,P35,P38,P41,P44,P0,P4,P7,P46
order2: dw P1,P5,P8,P11,P14,P17,P17,P21,P24,P27,P30,P33,P36,P39,P42,P3,P1,P5,P8,P47
order3: dw P2,P6,P9,P12,P15,P18,P18,P22,P25,P28,P31,P34,P37,P40,P43,P45,P2,P6,P9,P48
order4: dw P3,P3,P3,P3,P3,P3,P3,P3,P3,P3,P3,P3,P3,P3,P3,P3,P3,P3,P3,P3

P0:
 dn C#3,1,$000
 dn G#3,1,$000
 dn C#4,1,$000
 dn E_4,1,$000
 dn G#4,1,$000
 dn C#4,1,$000
 dn E_4,1,$000
 dn G#4,1,$000
 dn C#5,1,$000
 dn E_4,1,$000
 dn G#4,1,$000
 dn C#5,1,$000
 dn E_5,1,$000
 dn G#4,1,$000
 dn C#5,1,$000
 dn E_5,1,$000
 dn G#5,1,$000
 dn C#5,1,$000
 dn E_5,1,$000
 dn G#5,1,$000
 dn C#6,1,$000
 dn E_5,1,$000
 dn G#5,1,$000
 dn C#6,1,$000
 dn E_6,1,$000
 dn G#5,1,$000
 dn C#6,1,$000
 dn E_6,1,$000
 dn G#6,1,$000
 dn ___,0,$000
 dn G#6,1,$000
 dn ___,0,$000
 dn C_3,1,$000
 dn G#3,1,$000
 dn C_4,1,$000
 dn D#4,1,$000
 dn G#4,1,$000
 dn C_4,1,$000
 dn D#4,1,$000
 dn G#4,1,$000
 dn C_5,1,$000
 dn D#4,1,$000
 dn G#4,1,$000
 dn C_5,1,$000
 dn D#5,1,$000
 dn G#4,1,$000
 dn C_5,1,$000
 dn D#5,1,$000
 dn G#5,1,$000
 dn C_5,1,$000
 dn D#5,1,$000
 dn G#5,1,$000
 dn C_6,1,$000
 dn D#5,1,$000
 dn G#5,1,$000
 dn C_6,1,$000
 dn D#6,1,$000
 dn G#5,1,$000
 dn C_6,1,$000
 dn D#6,1,$000
 dn G#6,1,$000
 dn ___,0,$000
 dn G#6,1,$000
 dn ___,0,$000

P1:
 dn C#4,2,$000
 dn ___,0,$000
 dn G#4,2,$000
 dn ___,0,$000
 dn C#4,2,$000
 dn ___,0,$000
 dn G#4,2,$000
 dn ___,0,$000
 dn C#4,2,$000
 dn ___,0,$000
 dn G#4,2,$000
 dn ___,0,$000
 dn C#4,2,$000
 dn ___,0,$000
 dn G#4,2,$000
 dn ___,0,$000
 dn C#4,2,$000
 dn ___,0,$000
 dn G#4,2,$000
 dn ___,0,$000
 dn C#4,2,$000
 dn ___,0,$000
 dn G#4,2,$000
 dn ___,0,$000
 dn C#4,2,$000
 dn ___,0,$000
 dn G#4,2,$000
 dn ___,0,$000
 dn E_6,1,$000
 dn ___,0,$000
 dn E_6,1,$000
 dn ___,0,$000
 dn C_4,2,$000
 dn ___,0,$000
 dn G#4,2,$000
 dn ___,0,$000
 dn C_4,2,$000
 dn ___,0,$000
 dn G#4,2,$000
 dn ___,0,$000
 dn C_4,2,$000
 dn ___,0,$000
 dn G#4,2,$000
 dn ___,0,$000
 dn C_4,2,$000
 dn ___,0,$000
 dn G#4,2,$000
 dn ___,0,$000
 dn C_4,2,$000
 dn ___,0,$000
 dn G#4,2,$000
 dn ___,0,$000
 dn C_4,2,$000
 dn ___,0,$000
 dn G#4,2,$000
 dn ___,0,$000
 dn C_4,2,$000
 dn ___,0,$000
 dn G#4,2,$000
 dn ___,0,$000
 dn D#6,1,$000
 dn ___,0,$000
 dn D#6,1,$000
 dn ___,0,$000

P2:
 dn C#4,6,$000
 dn ___,0,$000
 dn G#4,6,$000
 dn ___,0,$000
 dn C#4,6,$000
 dn ___,0,$000
 dn G#4,6,$000
 dn ___,0,$000
 dn C#4,6,$000
 dn ___,0,$000
 dn G#4,6,$000
 dn ___,0,$000
 dn C#4,6,$000
 dn ___,0,$000
 dn G#4,6,$000
 dn ___,0,$000
 dn C#4,6,$000
 dn ___,0,$000
 dn G#4,6,$000
 dn ___,0,$000
 dn C#4,6,$000
 dn ___,0,$000
 dn G#4,6,$000
 dn ___,0,$000
 dn C#4,6,$000
 dn ___,0,$000
 dn G#4,6,$000
 dn ___,0,$000
 dn C#4,6,$000
 dn ___,0,$000
 dn G#4,6,$000
 dn ___,0,$000
 dn C_4,6,$000
 dn ___,0,$000
 dn G#4,6,$000
 dn ___,0,$000
 dn C_4,6,$000
 dn ___,0,$000
 dn G#4,6,$000
 dn ___,0,$000
 dn C_4,6,$000
 dn ___,0,$000
 dn G#4,6,$000
 dn ___,0,$000
 dn C_4,6,$000
 dn ___,0,$000
 dn G#4,6,$000
 dn ___,0,$000
 dn C_4,6,$000
 dn ___,0,$000
 dn G#4,6,$000
 dn ___,0,$000
 dn C_4,6,$000
 dn ___,0,$000
 dn G#4,6,$000
 dn ___,0,$000
 dn C_4,6,$000
 dn ___,0,$000
 dn G#4,6,$000
 dn ___,0,$000
 dn C_4,6,$000
 dn ___,0,$000
 dn G#4,6,$000
 dn ___,0,$000

P3:
 dn ___,0,$000
 dn ___,0,$000
 dn ___,0,$000
 dn ___,0,$000
 dn ___,0,$000
 dn ___,0,$000
 dn ___,0,$000
 dn ___,0,$000
 dn ___,0,$000
 dn ___,0,$000
 dn ___,0,$000
 dn ___,0,$000
 dn ___,0,$000
 dn ___,0,$000
 dn ___,0,$000
 dn ___,0,$000
 dn ___,0,$000
 dn ___,0,$000
 dn ___,0,$000
 dn ___,0,$000
 dn ___,0,$000
 dn ___,0,$000
 dn ___,0,$000
 dn ___,0,$000
 dn ___,0,$000
 dn ___,0,$000
 dn ___,0,$000
 dn ___,0,$000
 dn ___,0,$000
 dn ___,0,$000
 dn ___,0,$000
 dn ___,0,$000
 dn ___,0,$000
 dn ___,0,$000
 dn ___,0,$000
 dn ___,0,$000
 dn ___,0,$000
 dn ___,0,$000
 dn ___,0,$000
 dn ___,0,$000
 dn ___,0,$000
 dn ___,0,$000
 dn ___,0,$000
 dn ___,0,$000
 dn ___,0,$000
 dn ___,0,$000
 dn ___,0,$000
 dn ___,0,$000
 dn ___,0,$000
 dn ___,0,$000
 dn ___,0,$000
 dn ___,0,$000
 dn ___,0,$000
 dn ___,0,$000
 dn ___,0,$000
 dn ___,0,$000
 dn ___,0,$000
 dn ___,0,$000
 dn ___,0,$000
 dn ___,0,$000
 dn ___,0,$000
 dn ___,0,$000
 dn ___,0,$000
 dn ___,0,$000

P4:
 dn B_3,1,$000
 dn C#4,1,$000
 dn F_4,1,$000
 dn G#4,1,$000
 dn C#5,1,$000
 dn F_4,1,$000
 dn G#4,1,$000
 dn C#5,1,$000
 dn F_5,1,$000
 dn G#4,1,$000
 dn C#5,1,$000
 dn F_5,1,$000
 dn G#5,1,$000
 dn C#5,1,$000
 dn F_5,1,$000
 dn G#5,1,$000
 dn C#6,1,$000
 dn F_5,1,$000
 dn G#5,1,$000
 dn C#6,1,$000
 dn F_6,1,$000
 dn G#5,1,$000
 dn C#6,1,$000
 dn F_6,1,$000
 dn G#6,1,$000
 dn C#6,1,$000
 dn F_6,1,$000
 dn G#6,1,$000
 dn C#7,1,$000
 dn ___,0,$000
 dn C#7,1,$000
 dn ___,0,$000
 dn A_3,1,$000
 dn C#4,1,$000
 dn F#4,1,$000
 dn A_4,1,$000
 dn C#5,1,$E03
 dn C#5,1,$000
 dn F#5,1,$000
 dn A_5,1,$000
 dn C#6,1,$E03
 dn C#6,1,$000
 dn F#6,1,$000
 dn A_6,1,$000
 dn C#7,1,$000
 dn ___,0,$000
 dn C#7,1,$000
 dn ___,0,$000
 dn A_3,1,$000
 dn C#4,1,$000
 dn E_4,1,$000
 dn G_4,1,$000
 dn C#5,1,$E03
 dn C#5,1,$000
 dn E_5,1,$000
 dn G_5,1,$000
 dn C#6,1,$E03
 dn C#6,1,$000
 dn E_6,1,$000
 dn G_6,1,$000
 dn C#7,1,$000
 dn ___,0,$000
 dn C#7,1,$000
 dn ___,0,$000

P5:
 dn B_3,2,$000
 dn ___,0,$000
 dn G#4,2,$000
 dn ___,0,$000
 dn B_3,2,$000
 dn ___,0,$000
 dn G#4,2,$000
 dn ___,0,$000
 dn B_3,2,$000
 dn ___,0,$000
 dn G#4,2,$000
 dn ___,0,$000
 dn B_3,2,$000
 dn ___,0,$000
 dn G#4,2,$000
 dn ___,0,$000
 dn B_3,2,$000
 dn ___,0,$000
 dn G#4,2,$000
 dn ___,0,$000
 dn B_3,2,$000
 dn ___,0,$000
 dn G#4,2,$000
 dn ___,0,$000
 dn B_3,2,$000
 dn ___,0,$000
 dn G#4,2,$000
 dn ___,0,$000
 dn G#6,1,$000
 dn ___,0,$000
 dn G#6,1,$000
 dn ___,0,$000
 dn A_3,2,$000
 dn ___,0,$000
 dn A_4,2,$000
 dn ___,0,$000
 dn A_3,2,$000
 dn ___,0,$000
 dn A_4,2,$000
 dn ___,0,$000
 dn A_3,2,$000
 dn ___,0,$000
 dn A_4,2,$000
 dn ___,0,$000
 dn F#6,1,$000
 dn ___,0,$000
 dn F#6,1,$000
 dn ___,0,$000
 dn A_3,2,$000
 dn ___,0,$000
 dn A_4,2,$000
 dn ___,0,$000
 dn A_3,2,$000
 dn ___,0,$000
 dn A_4,2,$000
 dn ___,0,$000
 dn A_3,2,$000
 dn ___,0,$000
 dn A_4,2,$000
 dn ___,0,$000
 dn G_6,1,$000
 dn ___,0,$000
 dn G_6,1,$000
 dn ___,0,$000

P6:
 dn B_3,6,$000
 dn ___,0,$000
 dn G#4,6,$000
 dn ___,0,$000
 dn B_3,6,$000
 dn ___,0,$000
 dn G#4,6,$000
 dn ___,0,$000
 dn B_3,6,$000
 dn ___,0,$000
 dn G#4,6,$000
 dn ___,0,$000
 dn B_3,6,$000
 dn ___,0,$000
 dn G#4,6,$000
 dn ___,0,$000
 dn B_3,6,$000
 dn ___,0,$000
 dn G#4,6,$000
 dn ___,0,$000
 dn B_3,6,$000
 dn ___,0,$000
 dn G#4,6,$000
 dn ___,0,$000
 dn B_3,6,$000
 dn ___,0,$000
 dn G#4,6,$000
 dn ___,0,$000
 dn B_3,6,$000
 dn ___,0,$000
 dn G#4,6,$000
 dn ___,0,$000
 dn A_3,6,$000
 dn ___,0,$000
 dn A_4,6,$000
 dn ___,0,$000
 dn A_3,6,$000
 dn ___,0,$000
 dn A_4,6,$000
 dn ___,0,$000
 dn A_3,6,$000
 dn ___,0,$000
 dn A_4,6,$000
 dn ___,0,$000
 dn A_3,6,$000
 dn ___,0,$000
 dn A_4,6,$000
 dn ___,0,$000
 dn A_3,6,$000
 dn ___,0,$000
 dn A_4,6,$000
 dn ___,0,$000
 dn A_3,6,$000
 dn ___,0,$000
 dn A_4,6,$000
 dn ___,0,$000
 dn A_3,6,$000
 dn ___,0,$000
 dn A_4,6,$000
 dn ___,0,$000
 dn A_3,6,$000
 dn ___,0,$000
 dn A_4,6,$000
 dn ___,0,$000

P7:
 dn C_7,1,$000
 dn ___,0,$000
 dn G#5,1,$000
 dn G#6,1,$000
 dn G#5,1,$000
 dn G#6,1,$000
 dn A#5,1,$000
 dn G#6,1,$000
 dn C_6,1,$000
 dn G#6,1,$000
 dn C#6,1,$000
 dn G#6,1,$000
 dn D#6,1,$000
 dn G#6,1,$000
 dn C_6,1,$000
 dn G#6,1,$000
 dn D#6,1,$000
 dn G#6,1,$000
 dn C#6,1,$000
 dn G#6,1,$000
 dn F#6,1,$000
 dn G#6,1,$000
 dn E_6,1,$000
 dn G#6,1,$000
 dn D#6,1,$000
 dn G#6,1,$000
 dn C#6,1,$000
 dn G#6,1,$000
 dn C_6,1,$000
 dn G#6,1,$000
 dn A_5,1,$000
 dn G_6,1,$000
 dn G#5,1,$000
 dn G#6,1,$000
 dn G#5,1,$000
 dn G#6,1,$000
 dn G#5,1,$000
 dn G#6,1,$000
 dn A#5,1,$000
 dn G#6,1,$000
 dn C_6,1,$000
 dn G#6,1,$000
 dn C#6,1,$000
 dn G#6,1,$000
 dn D#6,1,$000
 dn G#6,1,$000
 dn C_6,1,$000
 dn G#6,1,$000
 dn D#6,1,$000
 dn G#6,1,$000
 dn C#6,1,$000
 dn G#6,1,$000
 dn F#6,1,$000
 dn G#6,1,$000
 dn E_6,1,$000
 dn G#6,1,$000
 dn D#6,1,$000
 dn G#6,1,$000
 dn C#6,1,$000
 dn G#6,1,$000
 dn C_6,1,$000
 dn G#6,1,$000
 dn A_5,1,$000
 dn G_6,1,$000

P8:
 dn G#6,1,$000
 dn ___,0,$000
 dn C_5,2,$000
 dn ___,0,$000
 dn C_5,2,$000
 dn ___,0,$000
 dn C#5,2,$000
 dn ___,0,$000
 dn D#5,2,$000
 dn ___,0,$000
 dn E_5,2,$000
 dn ___,0,$000
 dn F#5,2,$000
 dn ___,0,$000
 dn D#5,2,$000
 dn ___,0,$000
 dn F#5,2,$000
 dn ___,0,$000
 dn E_5,2,$000
 dn ___,0,$000
 dn A_5,2,$000
 dn ___,0,$000
 dn G#5,2,$000
 dn ___,0,$000
 dn F#5,2,$000
 dn ___,0,$000
 dn E_5,2,$000
 dn ___,0,$000
 dn D#5,2,$000
 dn ___,0,$000
 dn C#5,2,$000
 dn ___,0,$000
 dn G#6,1,$000
 dn ___,0,$000
 dn C_5,2,$000
 dn ___,0,$000
 dn C_5,2,$000
 dn ___,0,$000
 dn C#5,2,$000
 dn ___,0,$000
 dn D#5,2,$000
 dn ___,0,$000
 dn E_5,2,$000
 dn ___,0,$000
 dn F#5,2,$000
 dn ___,0,$000
 dn D#5,2,$000
 dn ___,0,$000
 dn F#5,2,$000
 dn ___,0,$000
 dn E_5,2,$000
 dn ___,0,$000
 dn A_5,2,$000
 dn ___,0,$000
 dn G#5,2,$000
 dn ___,0,$000
 dn F#5,2,$000
 dn ___,0,$000
 dn E_5,2,$000
 dn ___,0,$000
 dn D#5,2,$000
 dn ___,0,$000
 dn C#5,2,$000
 dn ___,0,$000

P9:
 dn G#4,6,$000
 dn ___,0,$000
 dn ___,0,$000
 dn ___,0,$000
 dn ___,0,$000
 dn ___,0,$000
 dn ___,0,$000
 dn ___,0,$000
 dn ___,0,$000
 dn ___,0,$000
 dn ___,0,$000
 dn ___,0,$000
 dn ___,0,$000
 dn ___,0,$000
 dn ___,0,$000
 dn ___,0,$000
 dn ___,0,$000
 dn ___,0,$000
 dn ___,0,$000
 dn ___,0,$000
 dn ___,0,$000
 dn ___,0,$000
 dn ___,0,$000
 dn ___,0,$000
 dn ___,0,$000
 dn ___,0,$000
 dn ___,0,$000
 dn ___,0,$000
 dn ___,0,$000
 dn ___,0,$000
 dn ___,0,$000
 dn ___,0,$E03
 dn G#4,6,$000
 dn ___,0,$000
 dn ___,0,$000
 dn ___,0,$000
 dn ___,0,$000
 dn ___,0,$000
 dn ___,0,$000
 dn ___,0,$000
 dn ___,0,$000
 dn ___,0,$000
 dn ___,0,$000
 dn ___,0,$000
 dn ___,0,$000
 dn ___,0,$000
 dn ___,0,$000
 dn ___,0,$000
 dn ___,0,$000
 dn ___,0,$000
 dn ___,0,$000
 dn ___,0,$000
 dn ___,0,$000
 dn ___,0,$000
 dn ___,0,$000
 dn ___,0,$000
 dn ___,0,$000
 dn ___,0,$000
 dn ___,0,$000
 dn ___,0,$000
 dn ___,0,$000
 dn ___,0,$000
 dn ___,0,$000
 dn ___,0,$000

P10:
 dn G#5,1,$000
 dn G#6,1,$000
 dn A_5,1,$000
 dn G#6,1,$000
 dn G#5,1,$000
 dn G#6,1,$000
 dn A_5,1,$000
 dn G#6,1,$000
 dn G#5,1,$000
 dn G#6,1,$000
 dn A_5,1,$000
 dn G#6,1,$000
 dn G#5,1,$000
 dn G#6,1,$000
 dn A_5,1,$000
 dn G#6,1,$000
 dn G#5,1,$000
 dn ___,0,$000
 dn ___,0,$000
 dn ___,0,$000
 dn G#4,2,$000
 dn ___,0,$000
 dn ___,0,$000
 dn ___,0,$000
 dn ___,0,$000
 dn ___,0,$000
 dn ___,0,$000
 dn ___,0,$000
 dn ___,0,$000
 dn ___,0,$000
 dn ___,0,$000
 dn ___,0,$000
 dn C#3,1,$000
 dn G#3,1,$000
 dn C#4,1,$000
 dn E_4,1,$000
 dn G#4,1,$000
 dn C#4,1,$000
 dn E_4,1,$000
 dn G#4,1,$000
 dn C#5,1,$000
 dn E_4,1,$000
 dn G#4,1,$000
 dn C#5,1,$000
 dn E_5,1,$000
 dn G#4,1,$000
 dn C#5,1,$000
 dn E_5,1,$000
 dn G#5,1,$000
 dn C#5,1,$000
 dn E_5,1,$000
 dn G#5,1,$000
 dn C#6,1,$000
 dn E_5,1,$000
 dn G#5,1,$000
 dn C#6,1,$000
 dn E_6,1,$E03
 dn E_6,1,$000
 dn G#6,1,$000
 dn C#7,1,$000
 dn E_7,1,$000
 dn ___,0,$000
 dn E_7,1,$000
 dn ___,0,$000

P11:
 dn C_5,2,$000
 dn ___,0,$000
 dn C#5,2,$000
 dn ___,0,$000
 dn C_5,2,$000
 dn ___,0,$000
 dn C#5,2,$000
 dn ___,0,$000
 dn C_5,2,$000
 dn ___,0,$000
 dn C#5,2,$000
 dn ___,0,$000
 dn C_5,2,$000
 dn ___,0,$000
 dn C#5,2,$000
 dn ___,0,$000
 dn C_5,2,$000
 dn ___,0,$000
 dn ___,0,$000
 dn ___,0,$000
 dn G#3,2,$000
 dn ___,0,$000
 dn ___,0,$000
 dn ___,0,$000
 dn ___,0,$000
 dn ___,0,$000
 dn ___,0,$000
 dn ___,0,$000
 dn ___,0,$000
 dn ___,0,$000
 dn ___,0,$000
 dn ___,0,$000
 dn C#4,2,$000
 dn ___,0,$000
 dn G#4,2,$000
 dn ___,0,$000
 dn C#4,2,$000
 dn ___,0,$000
 dn G#4,2,$000
 dn ___,0,$000
 dn C#4,2,$000
 dn ___,0,$000
 dn G#4,2,$000
 dn ___,0,$000
 dn C#4,2,$000
 dn ___,0,$000
 dn G#4,2,$000
 dn ___,0,$000
 dn C#4,2,$000
 dn ___,0,$000
 dn G#4,2,$000
 dn ___,0,$000
 dn C#4,2,$000
 dn ___,0,$000
 dn G#4,2,$000
 dn ___,0,$000
 dn C#4,2,$000
 dn ___,0,$000
 dn G#4,2,$000
 dn ___,0,$000
 dn E_6,1,$000
 dn ___,0,$000
 dn E_6,1,$000
 dn ___,0,$000

P12:
 dn G#4,6,$000
 dn ___,0,$E03
 dn G#4,6,$000
 dn ___,0,$E03
 dn G#4,6,$000
 dn ___,0,$E03
 dn G#4,6,$000
 dn ___,0,$E03
 dn G#4,6,$000
 dn ___,0,$E03
 dn G#4,6,$000
 dn ___,0,$E03
 dn G#4,6,$000
 dn ___,0,$E03
 dn G#4,6,$000
 dn ___,0,$E03
 dn G#4,6,$000
 dn ___,0,$000
 dn ___,0,$000
 dn ___,0,$000
 dn G#3,6,$000
 dn ___,0,$000
 dn ___,0,$000
 dn ___,0,$000
 dn ___,0,$000
 dn ___,0,$000
 dn ___,0,$000
 dn ___,0,$000
 dn ___,0,$000
 dn ___,0,$000
 dn ___,0,$000
 dn ___,0,$000
 dn C#4,6,$000
 dn ___,0,$000
 dn G#4,6,$000
 dn ___,0,$000
 dn C#4,6,$000
 dn ___,0,$000
 dn G#4,6,$000
 dn ___,0,$000
 dn C#4,6,$000
 dn ___,0,$000
 dn G#4,6,$000
 dn ___,0,$000
 dn C#4,6,$000
 dn ___,0,$000
 dn G#4,6,$000
 dn ___,0,$000
 dn C#4,6,$000
 dn ___,0,$000
 dn G#4,6,$000
 dn ___,0,$000
 dn C#4,6,$000
 dn ___,0,$000
 dn G#4,6,$000
 dn ___,0,$000
 dn C#4,6,$000
 dn ___,0,$000
 dn G#4,6,$000
 dn ___,0,$000
 dn C#4,6,$000
 dn ___,0,$000
 dn G#4,6,$000
 dn ___,0,$000

P13:
 dn A#3,1,$000
 dn E_4,1,$000
 dn G_4,1,$000
 dn C#5,1,$000
 dn E_5,1,$000
 dn G_4,1,$000
 dn C#5,1,$000
 dn E_5,1,$000
 dn G_5,1,$000
 dn C#5,1,$000
 dn E_5,1,$000
 dn G_5,1,$000
 dn C#6,1,$000
 dn E_5,1,$000
 dn G_5,1,$000
 dn C#6,1,$000
 dn E_6,1,$000
 dn G_5,1,$000
 dn C#6,1,$000
 dn E_6,1,$000
 dn G_6,1,$000
 dn C#6,1,$000
 dn E_6,1,$000
 dn G_6,1,$000
 dn C#7,1,$000
 dn E_6,1,$000
 dn G_6,1,$000
 dn C#7,1,$000
 dn E_7,1,$000
 dn ___,0,$000
 dn E_7,1,$000
 dn ___,0,$000
 dn G_3,1,$000
 dn C#4,1,$000
 dn A#4,1,$000
 dn C#5,1,$000
 dn D#5,1,$000
 dn A#4,1,$000
 dn C#5,1,$000
 dn D#5,1,$000
 dn A#5,1,$000
 dn C#5,1,$000
 dn D#5,1,$000
 dn A#5,1,$000
 dn C#6,1,$000
 dn D#5,1,$000
 dn A#5,1,$000
 dn C#6,1,$000
 dn D#6,1,$000
 dn A#5,1,$000
 dn C#6,1,$000
 dn D#6,1,$000
 dn A#6,1,$000
 dn C#6,1,$000
 dn D#6,1,$000
 dn A#6,1,$000
 dn C#7,1,$000
 dn A#6,1,$000
 dn D#6,1,$000
 dn C#6,1,$000
 dn A#6,1,$000
 dn D#6,1,$000
 dn C#6,1,$000
 dn A#5,1,$000

P14:
 dn A#3,2,$000
 dn ___,0,$000
 dn C#5,2,$000
 dn ___,0,$000
 dn A#4,2,$000
 dn ___,0,$000
 dn C#5,2,$000
 dn ___,0,$000
 dn A#4,2,$000
 dn ___,0,$000
 dn C#5,2,$000
 dn ___,0,$000
 dn A#4,2,$000
 dn ___,0,$000
 dn C#5,2,$000
 dn ___,0,$000
 dn A#4,2,$000
 dn ___,0,$000
 dn C#5,2,$000
 dn ___,0,$000
 dn A#4,2,$000
 dn ___,0,$000
 dn C#5,2,$000
 dn ___,0,$000
 dn A#4,2,$000
 dn ___,0,$000
 dn C#5,2,$000
 dn ___,0,$000
 dn E_6,1,$000
 dn ___,0,$000
 dn E_6,1,$000
 dn ___,0,$000
 dn G_4,2,$000
 dn ___,0,$000
 dn C#5,2,$000
 dn ___,0,$000
 dn G_4,2,$000
 dn ___,0,$000
 dn C#5,2,$000
 dn ___,0,$000
 dn G_4,2,$000
 dn ___,0,$000
 dn C#5,2,$000
 dn ___,0,$000
 dn G_4,2,$000
 dn ___,0,$000
 dn C#5,2,$000
 dn ___,0,$000
 dn G_4,2,$000
 dn ___,0,$000
 dn C#5,2,$000
 dn ___,0,$000
 dn G_4,2,$000
 dn ___,0,$000
 dn C#5,2,$000
 dn ___,0,$000
 dn G_4,2,$000
 dn ___,0,$000
 dn C#5,2,$000
 dn ___,0,$000
 dn G_4,2,$000
 dn ___,0,$000
 dn C#5,2,$000
 dn ___,0,$000

P15:
 dn A#3,6,$000
 dn ___,0,$000
 dn C#5,6,$000
 dn ___,0,$000
 dn A#4,6,$000
 dn ___,0,$000
 dn C#5,6,$000
 dn ___,0,$000
 dn A#4,6,$000
 dn ___,0,$000
 dn C#5,6,$000
 dn ___,0,$000
 dn A#4,6,$000
 dn ___,0,$000
 dn C#5,6,$000
 dn ___,0,$000
 dn A#4,6,$000
 dn ___,0,$000
 dn C#5,6,$000
 dn ___,0,$000
 dn A#4,6,$000
 dn ___,0,$000
 dn C#5,6,$000
 dn ___,0,$000
 dn A#4,6,$000
 dn ___,0,$000
 dn C#5,6,$000
 dn ___,0,$000
 dn A#4,6,$000
 dn ___,0,$000
 dn C#5,6,$000
 dn ___,0,$000
 dn G_4,6,$000
 dn ___,0,$000
 dn C#5,6,$000
 dn ___,0,$000
 dn G_4,6,$000
 dn ___,0,$000
 dn C#5,6,$000
 dn ___,0,$000
 dn G_4,6,$000
 dn ___,0,$000
 dn C#5,6,$000
 dn ___,0,$000
 dn G_4,6,$000
 dn ___,0,$000
 dn C#5,6,$000
 dn ___,0,$000
 dn G_4,6,$000
 dn ___,0,$000
 dn C#5,6,$000
 dn ___,0,$000
 dn G_4,6,$000
 dn ___,0,$000
 dn C#5,6,$000
 dn ___,0,$000
 dn G_4,6,$000
 dn ___,0,$000
 dn C#5,6,$000
 dn ___,0,$000
 dn G_4,6,$000
 dn ___,0,$000
 dn C#5,6,$000
 dn ___,0,$000

P16:
 dn B_5,3,$000
 dn ___,0,$000
 dn ___,0,$000
 dn ___,0,$000
 dn D#6,3,$000
 dn ___,0,$000
 dn ___,0,$000
 dn ___,0,$000
 dn ___,0,$000
 dn ___,0,$000
 dn ___,0,$000
 dn ___,0,$000
 dn B_5,3,$000
 dn ___,0,$000
 dn ___,0,$000
 dn G_5,3,$000
 dn G#5,3,$000
 dn ___,0,$000
 dn ___,0,$000
 dn ___,0,$000
 dn G_5,3,$000
 dn ___,0,$000
 dn ___,0,$000
 dn ___,0,$000
 dn ___,0,$000
 dn ___,0,$000
 dn G_5,3,$000
 dn ___,0,$000
 dn D#6,3,$000
 dn ___,0,$000
 dn ___,0,$000
 dn G_5,3,$000
 dn A#5,3,$000
 dn ___,0,$000
 dn ___,0,$000
 dn ___,0,$000
 dn G#5,3,$000
 dn ___,0,$000
 dn ___,0,$000
 dn ___,0,$000
 dn ___,0,$000
 dn ___,0,$000
 dn G#5,3,$000
 dn ___,0,$000
 dn D#6,3,$000
 dn ___,0,$000
 dn ___,0,$000
 dn G#5,3,$000
 dn B_5,3,$000
 dn ___,0,$000
 dn ___,0,$000
 dn ___,0,$000
 dn A#5,3,$000
 dn ___,0,$000
 dn ___,0,$000
 dn ___,0,$000
 dn ___,0,$000
 dn ___,0,$000
 dn A#5,3,$000
 dn ___,0,$000
 dn D#6,3,$000
 dn ___,0,$000
 dn ___,0,$000
 dn A#5,3,$000

P17:
 dn G#4,2,$000
 dn D#5,2,$000
 dn B_4,2,$000
 dn D#5,2,$000
 dn G#4,2,$000
 dn D#5,2,$000
 dn B_4,2,$000
 dn D#5,2,$000
 dn G#4,2,$000
 dn D#5,2,$000
 dn B_4,2,$000
 dn D#5,2,$000
 dn G#4,2,$000
 dn D#5,2,$000
 dn B_4,2,$000
 dn D#5,2,$000
 dn A#4,2,$000
 dn D#5,2,$000
 dn C#5,2,$000
 dn D#5,2,$000
 dn A#4,2,$000
 dn D#5,2,$000
 dn C#5,2,$000
 dn D#5,2,$000
 dn A#4,2,$000
 dn D#5,2,$000
 dn C#5,2,$000
 dn D#5,2,$000
 dn A#4,2,$000
 dn D#5,2,$000
 dn C#5,2,$000
 dn D#5,2,$000
 dn B_4,2,$000
 dn D#5,2,$000
 dn B_4,2,$000
 dn D#5,2,$000
 dn B_4,2,$000
 dn D#5,2,$000
 dn B_4,2,$000
 dn D#5,2,$000
 dn B_4,2,$000
 dn D#5,2,$000
 dn B_4,2,$000
 dn D#5,2,$000
 dn B_4,2,$000
 dn D#5,2,$000
 dn B_4,2,$000
 dn D#5,2,$000
 dn G_4,2,$000
 dn D#5,2,$000
 dn G_4,2,$000
 dn D#5,2,$000
 dn G_4,2,$000
 dn D#5,2,$000
 dn G_4,2,$000
 dn D#5,2,$000
 dn G_4,2,$000
 dn D#5,2,$000
 dn G_4,2,$000
 dn D#5,2,$000
 dn G_4,2,$000
 dn D#5,2,$000
 dn G_4,2,$000
 dn D#5,2,$000

P18:
 dn G#4,6,$000
 dn D#5,6,$000
 dn B_4,6,$000
 dn D#5,6,$000
 dn G#4,6,$000
 dn D#5,6,$000
 dn B_4,6,$000
 dn D#5,6,$000
 dn G#4,6,$000
 dn D#5,6,$000
 dn B_4,6,$000
 dn D#5,6,$000
 dn G#4,6,$000
 dn D#5,6,$000
 dn B_4,6,$000
 dn D#5,6,$000
 dn A#4,6,$000
 dn D#5,6,$000
 dn C#5,6,$000
 dn D#5,6,$000
 dn A#4,6,$000
 dn D#5,6,$000
 dn C#5,6,$000
 dn D#5,6,$000
 dn A#4,6,$000
 dn D#5,6,$000
 dn C#5,6,$000
 dn D#5,6,$000
 dn A#4,6,$000
 dn D#5,6,$000
 dn C#5,6,$000
 dn D#5,6,$000
 dn B_4,6,$000
 dn D#5,6,$000
 dn B_4,6,$000
 dn D#5,6,$000
 dn B_4,6,$000
 dn D#5,6,$000
 dn B_4,6,$000
 dn D#5,6,$000
 dn B_4,6,$000
 dn D#5,6,$000
 dn B_4,6,$000
 dn D#5,6,$000
 dn B_4,6,$000
 dn D#5,6,$000
 dn B_4,6,$000
 dn D#5,6,$000
 dn G_4,6,$000
 dn D#5,6,$000
 dn G_4,6,$000
 dn D#5,6,$000
 dn G_4,6,$000
 dn D#5,6,$000
 dn G_4,6,$000
 dn D#5,6,$000
 dn G_4,6,$000
 dn D#5,6,$000
 dn G_4,6,$000
 dn D#5,6,$000
 dn G_4,6,$000
 dn D#5,6,$000
 dn G_4,6,$000
 dn D#5,6,$000

P19:
 dn B_5,3,$000
 dn ___,0,$000
 dn D#6,3,$000
 dn ___,0,$000
 dn ___,0,$000
 dn ___,0,$000
 dn D#6,3,$000
 dn ___,0,$000
 dn ___,0,$000
 dn ___,0,$000
 dn D#6,3,$000
 dn ___,0,$000
 dn B_5,3,$000
 dn ___,0,$000
 dn G#5,3,$000
 dn ___,0,$000
 dn G#5,3,$000
 dn ___,0,$000
 dn G_5,3,$000
 dn ___,0,$000
 dn ___,0,$000
 dn ___,0,$000
 dn G_5,3,$000
 dn ___,0,$000
 dn ___,0,$000
 dn ___,0,$000
 dn G_5,3,$000
 dn ___,0,$000
 dn D#6,3,$000
 dn ___,0,$000
 dn G_5,3,$000
 dn ___,0,$000
 dn A#5,3,$000
 dn ___,0,$000
 dn G#5,3,$000
 dn ___,0,$000
 dn ___,0,$000
 dn ___,0,$000
 dn G#5,3,$000
 dn ___,0,$000
 dn ___,0,$000
 dn ___,0,$000
 dn G#5,3,$000
 dn ___,0,$000
 dn D#6,3,$000
 dn ___,0,$000
 dn G#5,3,$000
 dn ___,0,$000
 dn B_5,3,$000
 dn ___,0,$000
 dn A#5,3,$000
 dn ___,0,$000
 dn ___,0,$000
 dn ___,0,$000
 dn A#5,3,$000
 dn ___,0,$000
 dn ___,0,$000
 dn ___,0,$000
 dn A#5,3,$000
 dn ___,0,$000
 dn D#6,3,$000
 dn ___,0,$000
 dn A#5,3,$000
 dn ___,0,$000

P20:
 dn C_6,3,$000
 dn ___,0,$000
 dn ___,0,$000
 dn ___,0,$000
 dn ___,0,$000
 dn ___,0,$000
 dn ___,0,$000
 dn ___,0,$000
 dn C#6,3,$000
 dn ___,0,$000
 dn ___,0,$000
 dn ___,0,$000
 dn ___,0,$000
 dn ___,0,$000
 dn ___,0,$000
 dn ___,0,$000
 dn A#5,3,$000
 dn B_5,3,$000
 dn G#5,3,$000
 dn A#5,3,$000
 dn B_5,3,$000
 dn ___,0,$000
 dn ___,0,$000
 dn ___,0,$000
 dn ___,0,$000
 dn ___,0,$000
 dn ___,0,$000
 dn ___,0,$000
 dn ___,0,$000
 dn ___,0,$000
 dn ___,0,$000
 dn ___,0,$000
 dn G#5,3,$000
 dn ___,0,$000
 dn ___,0,$000
 dn ___,0,$000
 dn ___,0,$000
 dn ___,0,$000
 dn ___,0,$000
 dn ___,0,$000
 dn A_5,3,$000
 dn ___,0,$000
 dn ___,0,$000
 dn ___,0,$000
 dn ___,0,$000
 dn ___,0,$000
 dn ___,0,$000
 dn ___,0,$000
 dn G_5,3,$000
 dn G#5,3,$000
 dn F_5,3,$000
 dn G_5,3,$000
 dn G#5,3,$000
 dn ___,0,$000
 dn ___,0,$000
 dn ___,0,$000
 dn ___,0,$000
 dn ___,0,$000
 dn ___,0,$000
 dn ___,0,$000
 dn ___,0,$000
 dn ___,0,$000
 dn ___,0,$000
 dn ___,0,$000

P21:
 dn F#4,2,$000
 dn D#5,2,$000
 dn G#4,2,$000
 dn D#5,2,$000
 dn F#4,2,$000
 dn D#5,2,$000
 dn G#4,2,$000
 dn D#5,2,$000
 dn E_4,2,$000
 dn C#5,2,$000
 dn G#4,2,$000
 dn C#5,2,$000
 dn E_4,2,$000
 dn C#5,2,$000
 dn G#4,2,$000
 dn C#5,2,$000
 dn E_4,2,$000
 dn C#5,2,$000
 dn F#4,2,$000
 dn C#5,2,$000
 dn D#4,2,$000
 dn B_4,2,$000
 dn F#4,2,$000
 dn B_4,2,$000
 dn D#4,2,$000
 dn B_4,2,$000
 dn F#4,2,$000
 dn B_4,2,$000
 dn D#4,2,$000
 dn B_4,2,$000
 dn F#4,2,$000
 dn B_4,2,$000
 dn D_4,2,$000
 dn B_4,2,$000
 dn E_4,2,$000
 dn B_4,2,$000
 dn D_4,2,$000
 dn B_4,2,$000
 dn E_4,2,$000
 dn B_4,2,$000
 dn C#4,2,$000
 dn A_4,2,$000
 dn E_4,2,$000
 dn A_4,2,$000
 dn C#4,2,$000
 dn A_4,2,$000
 dn E_4,2,$000
 dn A_4,2,$000
 dn C#4,2,$000
 dn A#4,2,$000
 dn D#4,2,$000
 dn A#4,2,$000
 dn B_3,2,$000
 dn G#4,2,$000
 dn D#4,2,$000
 dn G#4,2,$000
 dn B_3,2,$000
 dn G#4,2,$000
 dn D#4,2,$000
 dn G#4,2,$000
 dn B_3,2,$000
 dn G#4,2,$000
 dn D#4,2,$000
 dn G#4,2,$000

P22:
 dn F#4,6,$000
 dn D#5,6,$000
 dn G#4,6,$000
 dn D#5,6,$000
 dn F#4,6,$000
 dn D#5,6,$000
 dn G#4,6,$000
 dn D#5,6,$000
 dn E_4,6,$000
 dn C#5,6,$000
 dn G#4,6,$000
 dn C#5,6,$000
 dn E_4,6,$000
 dn C#5,6,$000
 dn G#4,6,$000
 dn C#5,6,$000
 dn E_4,6,$000
 dn C#5,6,$000
 dn F#4,6,$000
 dn C#5,6,$000
 dn D#4,6,$000
 dn B_4,6,$000
 dn F#4,6,$000
 dn B_4,6,$000
 dn D#4,6,$000
 dn B_4,6,$000
 dn F#4,6,$000
 dn B_4,6,$000
 dn D#4,6,$000
 dn B_4,6,$000
 dn F#4,6,$000
 dn B_4,6,$000
 dn D_4,6,$000
 dn B_4,6,$000
 dn E_4,6,$000
 dn B_4,6,$000
 dn D_4,6,$000
 dn B_4,6,$000
 dn E_4,6,$000
 dn B_4,6,$000
 dn C#4,6,$000
 dn A_4,6,$000
 dn E_4,6,$000
 dn A_4,6,$000
 dn C#4,6,$000
 dn A_4,6,$000
 dn E_4,6,$000
 dn A_4,6,$000
 dn C#4,6,$000
 dn A#4,6,$000
 dn D#4,6,$000
 dn A#4,6,$000
 dn B_3,6,$000
 dn G#4,6,$000
 dn D#4,6,$000
 dn G#4,6,$000
 dn B_3,6,$000
 dn G#4,6,$000
 dn D#4,6,$000
 dn G#4,6,$000
 dn B_3,6,$000
 dn G#4,6,$000
 dn D#4,6,$000
 dn G#4,6,$000

P23:
 dn A_6,3,$000
 dn ___,0,$000
 dn ___,0,$000
 dn ___,0,$000
 dn ___,0,$000
 dn ___,0,$000
 dn ___,0,$000
 dn ___,0,$000
 dn ___,0,$000
 dn E_6,1,$000
 dn F#6,1,$000
 dn G#6,1,$000
 dn A_6,1,$000
 dn B_6,1,$000
 dn C#7,1,$000
 dn B_6,1,$000
 dn A_6,1,$000
 dn E_6,1,$000
 dn F#6,1,$000
 dn G#6,1,$000
 dn A_6,1,$000
 dn B_6,1,$000
 dn C#7,1,$000
 dn B_6,1,$000
 dn A_6,1,$000
 dn E_6,1,$000
 dn F#6,1,$000
 dn G#6,1,$000
 dn A_6,1,$000
 dn B_6,1,$000
 dn C#7,1,$000
 dn B_6,1,$000
 dn A_6,1,$000
 dn E_6,1,$000
 dn F#6,1,$000
 dn G#6,1,$000
 dn A_6,1,$000
 dn B_6,1,$000
 dn C#7,1,$000
 dn D_7,1,$000
 dn E_7,1,$000
 dn D#7,1,$000
 dn E_7,1,$000
 dn D#7,1,$000
 dn E_7,1,$000
 dn C#7,1,$000
 dn B_6,1,$000
 dn A_6,1,$000
 dn G#6,3,$000
 dn ___,0,$000
 dn ___,0,$000
 dn ___,0,$000
 dn ___,0,$000
 dn ___,0,$000
 dn ___,0,$000
 dn ___,0,$000
 dn A#6,1,$000
 dn B_6,1,$000
 dn A#6,1,$000
 dn B_6,1,$000
 dn A#6,1,$000
 dn B_6,1,$000
 dn A#6,1,$000
 dn B_6,1,$000

P24:
 dn E_6,2,$000
 dn ___,0,$000
 dn ___,0,$000
 dn ___,0,$000
 dn ___,0,$000
 dn ___,0,$000
 dn ___,0,$000
 dn ___,0,$000
 dn ___,0,$000
 dn ___,0,$E00
 dn ___,0,$000
 dn ___,0,$000
 dn ___,0,$000
 dn ___,0,$000
 dn ___,0,$000
 dn ___,0,$000
 dn E_4,2,$000
 dn ___,0,$000
 dn ___,0,$000
 dn ___,0,$000
 dn ___,0,$E00
 dn ___,0,$000
 dn ___,0,$000
 dn ___,0,$000
 dn E_4,2,$000
 dn ___,0,$000
 dn ___,0,$000
 dn ___,0,$000
 dn ___,0,$E00
 dn ___,0,$000
 dn ___,0,$000
 dn ___,0,$000
 dn E_4,2,$000
 dn ___,0,$000
 dn ___,0,$000
 dn ___,0,$E00
 dn E_4,2,$000
 dn ___,0,$000
 dn ___,0,$000
 dn ___,0,$E00
 dn E_4,2,$000
 dn ___,0,$000
 dn ___,0,$000
 dn ___,0,$E00
 dn E_4,2,$000
 dn ___,0,$000
 dn ___,0,$000
 dn ___,0,$000
 dn D#4,2,$000
 dn B_4,2,$000
 dn G#4,2,$000
 dn B_4,2,$000
 dn D#4,2,$000
 dn B_4,2,$000
 dn G#4,2,$000
 dn B_4,2,$000
 dn D#4,2,$000
 dn C#5,2,$000
 dn G_4,2,$000
 dn C#5,2,$000
 dn D#4,2,$000
 dn C#5,2,$000
 dn G_4,2,$000
 dn C#5,2,$000

P25:
 dn C#5,6,$000
 dn ___,0,$000
 dn ___,0,$000
 dn ___,0,$000
 dn ___,0,$000
 dn ___,0,$000
 dn ___,0,$000
 dn ___,0,$000
 dn ___,0,$000
 dn ___,0,$000
 dn ___,0,$000
 dn ___,0,$000
 dn ___,0,$E00
 dn ___,0,$000
 dn ___,0,$000
 dn ___,0,$000
 dn A_4,6,$000
 dn ___,0,$000
 dn ___,0,$000
 dn ___,0,$000
 dn ___,0,$E00
 dn ___,0,$000
 dn ___,0,$000
 dn ___,0,$000
 dn A_4,6,$000
 dn ___,0,$000
 dn ___,0,$000
 dn ___,0,$000
 dn ___,0,$E00
 dn ___,0,$000
 dn ___,0,$000
 dn ___,0,$000
 dn A_4,6,$000
 dn ___,0,$000
 dn ___,0,$000
 dn ___,0,$E00
 dn A_4,6,$000
 dn ___,0,$000
 dn ___,0,$000
 dn ___,0,$E00
 dn A_4,6,$000
 dn ___,0,$000
 dn ___,0,$000
 dn ___,0,$E00
 dn A_4,6,$000
 dn ___,0,$000
 dn ___,0,$000
 dn ___,0,$000
 dn D#4,6,$000
 dn B_4,6,$000
 dn G#4,6,$000
 dn B_4,6,$000
 dn D#4,6,$000
 dn B_4,6,$000
 dn G#4,6,$000
 dn B_4,6,$000
 dn D#4,6,$000
 dn C#5,6,$000
 dn G_4,6,$000
 dn C#5,6,$000
 dn D#4,6,$000
 dn C#5,6,$000
 dn G_4,6,$000
 dn C#5,6,$000

P26:
 dn G#6,3,$000
 dn ___,0,$000
 dn ___,0,$000
 dn ___,0,$000
 dn A_5,3,$000
 dn ___,0,$000
 dn ___,0,$000
 dn ___,0,$000
 dn ___,0,$000
 dn E_5,1,$000
 dn F#5,1,$000
 dn G#5,1,$000
 dn A_5,1,$000
 dn B_5,1,$000
 dn C#6,1,$000
 dn B_5,1,$000
 dn A_5,1,$000
 dn E_5,1,$000
 dn F#5,1,$000
 dn G#5,1,$000
 dn A_5,1,$000
 dn B_5,1,$000
 dn C#6,1,$000
 dn B_5,1,$000
 dn A_5,1,$000
 dn E_5,1,$000
 dn F#5,1,$000
 dn G#5,1,$000
 dn A_5,1,$000
 dn B_5,1,$000
 dn C#6,1,$000
 dn B_5,1,$000
 dn A_5,1,$000
 dn E_5,1,$000
 dn F#5,1,$000
 dn G#5,1,$000
 dn A_5,1,$000
 dn B_5,1,$000
 dn C#6,1,$000
 dn B_5,1,$000
 dn A_5,1,$000
 dn E_5,1,$000
 dn F#5,1,$000
 dn G#5,1,$000
 dn A_5,1,$000
 dn B_5,1,$000
 dn C#6,1,$000
 dn B_5,1,$000
 dn A_5,1,$000
 dn E_5,1,$000
 dn F#5,1,$000
 dn G#5,1,$000
 dn A_5,1,$000
 dn B_5,1,$000
 dn C#6,1,$000
 dn D_6,1,$000
 dn E_6,1,$000
 dn F#6,1,$000
 dn G#6,1,$000
 dn A_6,1,$000
 dn B_6,1,$000
 dn C#7,1,$000
 dn D_7,1,$000
 dn D#7,1,$000

P27:
 dn G#4,2,$000
 dn ___,0,$000
 dn ___,0,$000
 dn ___,0,$000
 dn A_4,2,$000
 dn ___,0,$000
 dn ___,0,$000
 dn ___,0,$000
 dn ___,0,$000
 dn ___,0,$000
 dn ___,0,$E00
 dn ___,0,$000
 dn ___,0,$000
 dn ___,0,$000
 dn ___,0,$000
 dn ___,0,$000
 dn ___,0,$000
 dn ___,0,$000
 dn ___,0,$000
 dn ___,0,$000
 dn A_4,2,$000
 dn ___,0,$000
 dn ___,0,$000
 dn ___,0,$000
 dn ___,0,$E00
 dn ___,0,$000
 dn ___,0,$000
 dn ___,0,$000
 dn A_4,2,$000
 dn ___,0,$000
 dn ___,0,$000
 dn ___,0,$000
 dn ___,0,$E00
 dn ___,0,$000
 dn A_4,2,$000
 dn ___,0,$000
 dn ___,0,$E00
 dn ___,0,$000
 dn A_4,2,$000
 dn ___,0,$000
 dn ___,0,$E00
 dn ___,0,$000
 dn A_4,2,$000
 dn ___,0,$000
 dn ___,0,$E00
 dn ___,0,$000
 dn A_4,2,$000
 dn ___,0,$E00
 dn A_4,2,$000
 dn ___,0,$000
 dn ___,0,$000
 dn ___,0,$000
 dn ___,0,$E00
 dn ___,0,$000
 dn ___,0,$000
 dn ___,0,$000
 dn ___,0,$000
 dn ___,0,$000
 dn ___,0,$000
 dn ___,0,$000
 dn ___,0,$000
 dn ___,0,$000
 dn ___,0,$000
 dn ___,0,$000

P28:
 dn B_4,6,$000
 dn ___,0,$000
 dn ___,0,$000
 dn ___,0,$000
 dn C#5,6,$000
 dn ___,0,$000
 dn ___,0,$000
 dn ___,0,$000
 dn ___,0,$000
 dn ___,0,$000
 dn ___,0,$E00
 dn ___,0,$000
 dn ___,0,$000
 dn ___,0,$000
 dn ___,0,$000
 dn ___,0,$000
 dn ___,0,$000
 dn ___,0,$000
 dn ___,0,$000
 dn ___,0,$000
 dn A_4,6,$000
 dn ___,0,$000
 dn ___,0,$000
 dn ___,0,$000
 dn ___,0,$E00
 dn ___,0,$000
 dn ___,0,$000
 dn ___,0,$000
 dn A_4,6,$000
 dn ___,0,$000
 dn ___,0,$000
 dn ___,0,$000
 dn ___,0,$E00
 dn ___,0,$000
 dn A_4,6,$000
 dn ___,0,$000
 dn ___,0,$E00
 dn ___,0,$000
 dn A_4,6,$000
 dn ___,0,$000
 dn ___,0,$E00
 dn ___,0,$000
 dn A_4,6,$000
 dn ___,0,$000
 dn ___,0,$E00
 dn ___,0,$000
 dn A_4,6,$000
 dn ___,0,$E00
 dn A_4,6,$000
 dn ___,0,$000
 dn ___,0,$000
 dn ___,0,$000
 dn ___,0,$E00
 dn ___,0,$000
 dn ___,0,$000
 dn ___,0,$000
 dn ___,0,$000
 dn ___,0,$000
 dn ___,0,$000
 dn ___,0,$000
 dn ___,0,$000
 dn ___,0,$000
 dn ___,0,$000
 dn ___,0,$000

P29:
 dn E_7,3,$000
 dn ___,0,$000
 dn ___,0,$000
 dn ___,0,$000
 dn ___,0,$000
 dn ___,0,$000
 dn ___,0,$000
 dn ___,0,$000
 dn G#6,3,$000
 dn ___,0,$000
 dn ___,0,$000
 dn ___,0,$000
 dn ___,0,$000
 dn ___,0,$000
 dn ___,0,$000
 dn ___,0,$000
 dn B_6,3,$000
 dn ___,0,$000
 dn ___,0,$000
 dn ___,0,$000
 dn ___,0,$000
 dn ___,0,$000
 dn ___,0,$000
 dn ___,0,$000
 dn G_5,3,$000
 dn ___,0,$000
 dn ___,0,$000
 dn ___,0,$000
 dn ___,0,$000
 dn ___,0,$000
 dn ___,0,$000
 dn ___,0,$000
 dn G#5,1,$000
 dn ___,0,$000
 dn B_5,1,$000
 dn ___,0,$000
 dn B_5,1,$000
 dn ___,0,$000
 dn B_5,1,$000
 dn ___,0,$000
 dn B_5,1,$000
 dn ___,0,$000
 dn B_5,1,$000
 dn ___,0,$000
 dn A#5,1,$000
 dn ___,0,$000
 dn G#5,1,$000
 dn ___,0,$000
 dn G_5,1,$000
 dn ___,0,$000
 dn D#6,1,$000
 dn ___,0,$000
 dn D#6,1,$000
 dn ___,0,$000
 dn D#6,1,$000
 dn ___,0,$000
 dn D#6,1,$000
 dn ___,0,$000
 dn D#6,1,$000
 dn ___,0,$000
 dn D#6,1,$000
 dn ___,0,$000
 dn D#6,1,$000
 dn ___,0,$000

P30:
 dn C#4,2,$000
 dn A_4,2,$000
 dn E_4,2,$000
 dn A_4,2,$000
 dn C#4,2,$000
 dn A_4,2,$000
 dn E_4,2,$000
 dn A_4,2,$000
 dn D_4,2,$000
 dn B_4,2,$000
 dn F_4,2,$000
 dn B_4,2,$000
 dn D_4,2,$000
 dn B_4,2,$000
 dn F_4,2,$000
 dn B_4,2,$000
 dn D#4,2,$000
 dn B_4,2,$000
 dn F#4,2,$000
 dn B_4,2,$000
 dn D#4,2,$000
 dn B_4,2,$000
 dn F#4,2,$000
 dn B_4,2,$000
 dn C#3,2,$000
 dn D#4,2,$000
 dn D_4,2,$000
 dn D#4,2,$000
 dn D_4,2,$000
 dn D#4,2,$000
 dn D_4,2,$000
 dn D#4,2,$000
 dn D#5,2,$000
 dn ___,0,$E03
 dn D#5,2,$000
 dn ___,0,$E03
 dn D#5,2,$000
 dn ___,0,$E03
 dn D#5,2,$000
 dn ___,0,$E03
 dn D#5,2,$000
 dn ___,0,$E03
 dn D#5,2,$000
 dn ___,0,$E03
 dn D#5,2,$000
 dn ___,0,$E03
 dn D#5,2,$000
 dn ___,0,$E03
 dn D#5,2,$000
 dn ___,0,$E03
 dn G_5,2,$000
 dn ___,0,$E03
 dn G_5,2,$000
 dn ___,0,$E03
 dn G_5,2,$000
 dn ___,0,$E03
 dn G_5,2,$000
 dn ___,0,$E03
 dn G_5,2,$000
 dn ___,0,$E03
 dn G#5,2,$000
 dn ___,0,$E03
 dn A#5,2,$000
 dn ___,0,$E03

P31:
 dn C#4,6,$000
 dn A_4,6,$000
 dn E_4,6,$000
 dn A_4,6,$000
 dn C#4,6,$000
 dn A_4,6,$000
 dn E_4,6,$000
 dn A_4,6,$000
 dn D_4,6,$000
 dn B_4,6,$000
 dn F_4,6,$000
 dn B_4,6,$000
 dn D_4,6,$000
 dn B_4,6,$000
 dn F_4,6,$000
 dn B_4,6,$000
 dn D#4,6,$000
 dn B_4,6,$000
 dn F#4,6,$000
 dn B_4,6,$000
 dn D#4,6,$000
 dn B_4,6,$000
 dn F#4,6,$000
 dn B_4,6,$000
 dn C#3,6,$000
 dn D#4,6,$000
 dn D_4,6,$000
 dn D#4,6,$000
 dn D_4,6,$000
 dn D#4,6,$000
 dn D_4,6,$000
 dn D#4,6,$000
 dn G#3,6,$000
 dn ___,0,$000
 dn ___,0,$E00
 dn ___,0,$000
 dn G#4,6,$000
 dn ___,0,$E03
 dn G#4,6,$000
 dn ___,0,$E03
 dn G#4,6,$000
 dn ___,0,$E03
 dn G#4,6,$000
 dn ___,0,$E03
 dn A#4,6,$000
 dn ___,0,$E03
 dn B_4,6,$000
 dn ___,0,$E03
 dn C#5,6,$000
 dn ___,0,$E03
 dn C#5,6,$000
 dn ___,0,$E03
 dn C#5,6,$000
 dn ___,0,$E03
 dn C#5,6,$000
 dn ___,0,$E03
 dn C#5,6,$000
 dn ___,0,$E03
 dn C#5,6,$000
 dn ___,0,$E03
 dn B_4,6,$000
 dn ___,0,$E03
 dn A#4,6,$000
 dn ___,0,$E03

P32:
 dn D#6,1,$000
 dn ___,0,$000
 dn B_5,1,$000
 dn ___,0,$000
 dn B_5,1,$000
 dn ___,0,$000
 dn B_5,1,$000
 dn ___,0,$000
 dn B_5,1,$000
 dn ___,0,$000
 dn B_5,1,$000
 dn ___,0,$000
 dn A#5,1,$000
 dn ___,0,$000
 dn G#5,1,$000
 dn ___,0,$000
 dn G_5,1,$000
 dn ___,0,$000
 dn D#6,1,$000
 dn ___,0,$000
 dn D#6,1,$000
 dn ___,0,$000
 dn D#6,1,$000
 dn ___,0,$000
 dn D#6,1,$000
 dn ___,0,$000
 dn D#6,1,$000
 dn ___,0,$000
 dn D#6,1,$000
 dn ___,0,$000
 dn D#6,1,$000
 dn ___,0,$000
 dn D#6,1,$000
 dn ___,0,$000
 dn D#6,1,$000
 dn ___,0,$000
 dn D#6,3,$000
 dn ___,0,$000
 dn B_5,1,$000
 dn ___,0,$000
 dn ___,0,$000
 dn ___,0,$000
 dn E_6,1,$000
 dn ___,0,$000
 dn E_6,3,$000
 dn ___,0,$000
 dn C#6,1,$000
 dn ___,0,$000
 dn ___,0,$000
 dn ___,0,$000
 dn D#6,1,$000
 dn ___,0,$000
 dn D#6,3,$000
 dn ___,0,$000
 dn B_5,1,$000
 dn ___,0,$000
 dn ___,0,$000
 dn ___,0,$000
 dn D#6,1,$000
 dn ___,0,$000
 dn D#6,3,$000
 dn ___,0,$000
 dn A#5,1,$000
 dn ___,0,$000

P33:
 dn B_5,2,$000
 dn ___,0,$E03
 dn D#5,2,$000
 dn ___,0,$E03
 dn D#5,2,$000
 dn ___,0,$E03
 dn D#5,2,$000
 dn ___,0,$E03
 dn D#5,2,$000
 dn ___,0,$E03
 dn D#5,2,$000
 dn ___,0,$E03
 dn D#5,2,$000
 dn ___,0,$E03
 dn D#5,2,$000
 dn ___,0,$E03
 dn D#5,2,$000
 dn ___,0,$E03
 dn G_5,2,$000
 dn ___,0,$E03
 dn G_5,2,$000
 dn ___,0,$E03
 dn G_5,2,$000
 dn ___,0,$E03
 dn G_5,2,$000
 dn ___,0,$E03
 dn G_5,2,$000
 dn ___,0,$E03
 dn G#5,2,$000
 dn ___,0,$E03
 dn A#5,2,$000
 dn ___,0,$E03
 dn ___,0,$000
 dn ___,0,$000
 dn G#4,2,$000
 dn ___,0,$E00
 dn G#4,2,$000
 dn ___,0,$000
 dn B_4,2,$000
 dn ___,0,$000
 dn ___,0,$E00
 dn ___,0,$000
 dn G#4,2,$000
 dn ___,0,$E00
 dn G#4,2,$000
 dn ___,0,$000
 dn C#5,2,$000
 dn ___,0,$000
 dn ___,0,$E00
 dn ___,0,$000
 dn G#4,2,$000
 dn ___,0,$E00
 dn G#4,2,$000
 dn ___,0,$000
 dn B_4,2,$000
 dn ___,0,$000
 dn ___,0,$E00
 dn ___,0,$000
 dn G_4,2,$000
 dn ___,0,$E00
 dn G_4,2,$000
 dn ___,0,$000
 dn A#4,2,$000
 dn ___,0,$000

P34:
 dn G#4,6,$000
 dn ___,0,$E03
 dn G#4,6,$000
 dn ___,0,$E03
 dn G#4,6,$000
 dn ___,0,$E03
 dn G#4,6,$000
 dn ___,0,$E03
 dn G#4,6,$000
 dn ___,0,$E03
 dn G#4,6,$000
 dn ___,0,$E03
 dn A#4,6,$000
 dn ___,0,$E03
 dn B_4,6,$000
 dn ___,0,$E03
 dn C#5,6,$000
 dn ___,0,$E03
 dn C#5,6,$000
 dn ___,0,$E03
 dn C#5,6,$000
 dn ___,0,$E03
 dn C#5,6,$000
 dn ___,0,$E03
 dn C#5,6,$000
 dn ___,0,$E03
 dn C#5,6,$000
 dn ___,0,$E03
 dn B_4,6,$000
 dn ___,0,$E03
 dn A#4,6,$000
 dn ___,0,$E03
 dn G#3,6,$000
 dn ___,0,$000
 dn B_4,6,$000
 dn ___,0,$E00
 dn B_4,6,$000
 dn ___,0,$000
 dn D#5,6,$000
 dn ___,0,$000
 dn C#4,6,$000
 dn ___,0,$000
 dn C#5,6,$000
 dn ___,0,$E00
 dn C#5,6,$000
 dn ___,0,$000
 dn E_5,6,$000
 dn ___,0,$000
 dn D#4,6,$000
 dn ___,0,$000
 dn B_4,6,$000
 dn ___,0,$E00
 dn B_4,6,$000
 dn ___,0,$000
 dn D#5,6,$000
 dn ___,0,$000
 dn D#4,6,$000
 dn ___,0,$000
 dn A#4,6,$000
 dn ___,0,$E00
 dn A#4,6,$000
 dn ___,0,$000
 dn D#5,6,$000
 dn ___,0,$000

P35:
 dn B_5,1,$000
 dn ___,0,$000
 dn B_6,1,$000
 dn ___,0,$000
 dn B_6,1,$000
 dn ___,0,$000
 dn B_6,1,$000
 dn ___,0,$000
 dn B_6,1,$000
 dn ___,0,$000
 dn B_6,1,$000
 dn ___,0,$000
 dn A#6,1,$000
 dn ___,0,$000
 dn G#6,1,$000
 dn ___,0,$000
 dn G_6,1,$000
 dn ___,0,$000
 dn E_7,1,$000
 dn ___,0,$000
 dn E_7,1,$000
 dn ___,0,$000
 dn E_7,1,$000
 dn ___,0,$000
 dn E_7,1,$000
 dn ___,0,$000
 dn E_7,1,$000
 dn ___,0,$000
 dn D#7,1,$000
 dn ___,0,$000
 dn C#7,1,$000
 dn ___,0,$000
 dn B_6,1,$000
 dn ___,0,$000
 dn B_6,1,$000
 dn ___,0,$000
 dn B_6,1,$000
 dn ___,0,$000
 dn B_6,1,$000
 dn ___,0,$000
 dn B_6,1,$000
 dn ___,0,$000
 dn B_6,1,$000
 dn ___,0,$000
 dn A#6,1,$000
 dn ___,0,$000
 dn G#6,1,$000
 dn ___,0,$000
 dn G_6,1,$000
 dn ___,0,$000
 dn E_7,1,$000
 dn ___,0,$000
 dn E_7,1,$000
 dn ___,0,$000
 dn E_7,1,$000
 dn ___,0,$000
 dn E_7,1,$000
 dn ___,0,$000
 dn E_7,1,$000
 dn ___,0,$000
 dn D#7,1,$000
 dn ___,0,$000
 dn C#7,1,$000
 dn ___,0,$000

P36:
 dn G#5,1,$000
 dn ___,0,$000
 dn D#6,1,$000
 dn ___,0,$000
 dn D#6,1,$000
 dn ___,0,$000
 dn D#6,1,$000
 dn ___,0,$000
 dn D#6,1,$000
 dn ___,0,$000
 dn D#6,1,$000
 dn ___,0,$000
 dn C#6,1,$000
 dn ___,0,$000
 dn B_5,1,$000
 dn ___,0,$000
 dn A#5,1,$000
 dn ___,0,$000
 dn G_6,1,$000
 dn ___,0,$000
 dn G_6,1,$000
 dn ___,0,$000
 dn G_6,1,$000
 dn ___,0,$000
 dn G_6,1,$000
 dn ___,0,$000
 dn G_6,1,$000
 dn ___,0,$000
 dn G_6,1,$000
 dn ___,0,$000
 dn G_6,1,$000
 dn ___,0,$000
 dn G#6,1,$000
 dn ___,0,$000
 dn D#6,1,$000
 dn ___,0,$000
 dn D#6,1,$000
 dn ___,0,$000
 dn D#6,1,$000
 dn ___,0,$000
 dn D#6,1,$000
 dn ___,0,$000
 dn D#6,1,$000
 dn ___,0,$000
 dn C#6,1,$000
 dn ___,0,$000
 dn B_5,1,$000
 dn ___,0,$000
 dn A#5,1,$000
 dn ___,0,$000
 dn G_6,1,$000
 dn ___,0,$000
 dn G_6,1,$000
 dn ___,0,$000
 dn G_6,1,$000
 dn ___,0,$000
 dn G_6,1,$000
 dn ___,0,$000
 dn G_6,1,$000
 dn ___,0,$000
 dn G_6,1,$000
 dn ___,0,$000
 dn G_6,1,$000
 dn ___,0,$000

P37:
 dn G#4,6,$000
 dn ___,0,$000
 dn D#5,6,$000
 dn ___,0,$E00
 dn D#5,6,$000
 dn ___,0,$E00
 dn D#5,6,$000
 dn ___,0,$E00
 dn D#5,6,$000
 dn ___,0,$E00
 dn D#5,6,$000
 dn ___,0,$E00
 dn D#5,6,$000
 dn ___,0,$E00
 dn D#5,6,$000
 dn ___,0,$E00
 dn D#5,6,$000
 dn ___,0,$E00
 dn C#6,6,$000
 dn ___,0,$E00
 dn C#6,6,$000
 dn ___,0,$E00
 dn C#6,6,$000
 dn ___,0,$E00
 dn C#6,6,$000
 dn ___,0,$E00
 dn C#6,6,$000
 dn ___,0,$E00
 dn B_5,6,$000
 dn ___,0,$E00
 dn A#5,6,$000
 dn ___,0,$E00
 dn G#4,6,$000
 dn ___,0,$000
 dn D#5,6,$000
 dn ___,0,$E00
 dn D#5,6,$000
 dn ___,0,$E00
 dn D#5,6,$000
 dn ___,0,$E00
 dn D#5,6,$000
 dn ___,0,$E00
 dn D#5,6,$000
 dn ___,0,$E00
 dn D#5,6,$000
 dn ___,0,$E00
 dn D#5,6,$000
 dn ___,0,$E00
 dn D#5,6,$000
 dn ___,0,$E00
 dn C#6,6,$000
 dn ___,0,$E00
 dn C#6,6,$000
 dn ___,0,$E00
 dn C#6,6,$000
 dn ___,0,$E00
 dn C#6,6,$000
 dn ___,0,$E00
 dn C#6,6,$000
 dn ___,0,$E00
 dn B_5,6,$000
 dn ___,0,$E00
 dn A#5,6,$000
 dn ___,0,$E00

P38:
 dn B_6,1,$000
 dn ___,0,$000
 dn B_6,1,$000
 dn ___,0,$000
 dn B_6,1,$000
 dn ___,0,$000
 dn D#7,1,$000
 dn ___,0,$000
 dn ___,0,$000
 dn ___,0,$000
 dn C#7,1,$000
 dn ___,0,$000
 dn C#7,1,$000
 dn ___,0,$000
 dn E_7,1,$000
 dn ___,0,$000
 dn ___,0,$000
 dn ___,0,$000
 dn B_6,1,$000
 dn ___,0,$000
 dn B_6,1,$000
 dn ___,0,$000
 dn D#7,1,$000
 dn ___,0,$000
 dn ___,0,$000
 dn ___,0,$000
 dn A#6,1,$000
 dn ___,0,$000
 dn A#6,1,$000
 dn ___,0,$000
 dn D#7,1,$000
 dn ___,0,$000
 dn ___,0,$000
 dn ___,0,$000
 dn B_6,1,$000
 dn ___,0,$000
 dn B_6,1,$000
 dn ___,0,$000
 dn D#7,1,$000
 dn ___,0,$000
 dn ___,0,$000
 dn ___,0,$000
 dn A_6,1,$000
 dn ___,0,$000
 dn A_6,1,$000
 dn ___,0,$000
 dn C#7,1,$000
 dn ___,0,$000
 dn ___,0,$000
 dn ___,0,$000
 dn G#6,1,$000
 dn ___,0,$000
 dn G#6,1,$000
 dn ___,0,$000
 dn B_6,1,$000
 dn ___,0,$000
 dn ___,0,$000
 dn ___,0,$000
 dn G_6,1,$000
 dn ___,0,$000
 dn G_6,1,$000
 dn ___,0,$000
 dn A#6,1,$000
 dn ___,0,$000

P39:
 dn G#6,1,$000
 dn ___,0,$000
 dn G#6,1,$000
 dn ___,0,$000
 dn G#6,1,$000
 dn ___,0,$000
 dn B_6,1,$000
 dn ___,0,$000
 dn ___,0,$000
 dn ___,0,$000
 dn G#6,1,$000
 dn ___,0,$000
 dn G#6,1,$000
 dn ___,0,$000
 dn C#7,1,$000
 dn ___,0,$000
 dn ___,0,$000
 dn ___,0,$000
 dn G#6,1,$000
 dn ___,0,$000
 dn G#6,1,$000
 dn ___,0,$000
 dn B_6,1,$000
 dn ___,0,$000
 dn ___,0,$000
 dn ___,0,$000
 dn G_6,1,$000
 dn ___,0,$000
 dn G_6,1,$000
 dn ___,0,$000
 dn A#6,1,$000
 dn ___,0,$000
 dn ___,0,$000
 dn ___,0,$000
 dn D#6,1,$000
 dn ___,0,$000
 dn D#6,1,$000
 dn ___,0,$000
 dn G#6,1,$000
 dn ___,0,$000
 dn ___,0,$000
 dn ___,0,$000
 dn C#6,1,$000
 dn ___,0,$000
 dn C#6,1,$000
 dn ___,0,$000
 dn E_6,1,$000
 dn ___,0,$000
 dn ___,0,$000
 dn ___,0,$000
 dn B_5,1,$000
 dn ___,0,$000
 dn B_5,1,$000
 dn ___,0,$000
 dn D#6,1,$000
 dn ___,0,$000
 dn ___,0,$000
 dn ___,0,$000
 dn A#5,1,$000
 dn ___,0,$000
 dn A#5,1,$000
 dn ___,0,$000
 dn C#6,1,$000
 dn ___,0,$000

P40:
 dn G#4,6,$000
 dn ___,0,$000
 dn D#5,6,$000
 dn ___,0,$E00
 dn D#5,6,$000
 dn ___,0,$000
 dn B_4,6,$000
 dn ___,0,$000
 dn C#4,6,$000
 dn ___,0,$000
 dn E_5,6,$000
 dn ___,0,$E00
 dn E_5,6,$000
 dn ___,0,$000
 dn C#5,6,$000
 dn ___,0,$000
 dn D#4,6,$000
 dn ___,0,$000
 dn D#5,6,$000
 dn ___,0,$E00
 dn D#5,6,$000
 dn ___,0,$000
 dn B_4,6,$000
 dn ___,0,$000
 dn C#4,6,$000
 dn ___,0,$000
 dn D#5,6,$000
 dn ___,0,$E00
 dn D#5,6,$000
 dn ___,0,$000
 dn A#4,6,$000
 dn ___,0,$000
 dn B_4,6,$000
 dn ___,0,$000
 dn G#5,6,$000
 dn ___,0,$E00
 dn G#5,6,$000
 dn ___,0,$000
 dn D#5,6,$000
 dn ___,0,$000
 dn C#4,6,$000
 dn ___,0,$000
 dn A_5,6,$000
 dn ___,0,$E00
 dn A_5,6,$000
 dn ___,0,$000
 dn E_5,6,$000
 dn ___,0,$000
 dn D#4,6,$000
 dn ___,0,$000
 dn G#5,6,$000
 dn ___,0,$E00
 dn G#5,6,$000
 dn ___,0,$000
 dn D#5,6,$000
 dn ___,0,$000
 dn D#4,6,$000
 dn ___,0,$000
 dn G_5,6,$000
 dn ___,0,$E00
 dn G_5,6,$000
 dn ___,0,$000
 dn C#5,6,$000
 dn ___,0,$000

P41:
 dn G#6,3,$000
 dn ___,0,$000
 dn ___,0,$000
 dn ___,0,$000
 dn ___,0,$000
 dn ___,0,$000
 dn ___,0,$000
 dn ___,0,$000
 dn ___,0,$000
 dn ___,0,$000
 dn ___,0,$000
 dn ___,0,$000
 dn B_5,3,$000
 dn ___,0,$000
 dn ___,0,$000
 dn G#5,3,$000
 dn G_5,3,$000
 dn ___,0,$000
 dn ___,0,$000
 dn ___,0,$000
 dn D#6,3,$000
 dn ___,0,$000
 dn ___,0,$000
 dn ___,0,$000
 dn D#6,3,$000
 dn ___,0,$000
 dn ___,0,$000
 dn ___,0,$000
 dn D#6,3,$000
 dn ___,0,$000
 dn ___,0,$000
 dn B_5,3,$000
 dn D#6,3,$000
 dn ___,0,$000
 dn ___,0,$000
 dn ___,0,$000
 dn ___,0,$000
 dn ___,0,$000
 dn ___,0,$000
 dn ___,0,$000
 dn ___,0,$000
 dn ___,0,$000
 dn ___,0,$000
 dn ___,0,$000
 dn B_6,3,$000
 dn ___,0,$000
 dn ___,0,$000
 dn G#6,3,$000
 dn G_6,3,$000
 dn ___,0,$000
 dn ___,0,$000
 dn ___,0,$000
 dn D#7,3,$000
 dn ___,0,$000
 dn ___,0,$000
 dn ___,0,$000
 dn D#7,3,$000
 dn ___,0,$000
 dn ___,0,$000
 dn ___,0,$000
 dn D#7,3,$000
 dn ___,0,$000
 dn ___,0,$000
 dn B_5,3,$000

P42:
 dn B_5,3,$000
 dn ___,0,$000
 dn ___,0,$000
 dn ___,0,$000
 dn ___,0,$000
 dn ___,0,$000
 dn ___,0,$000
 dn ___,0,$000
 dn ___,0,$000
 dn ___,0,$000
 dn ___,0,$000
 dn ___,0,$000
 dn ___,0,$000
 dn ___,0,$000
 dn ___,0,$000
 dn ___,0,$000
 dn ___,0,$000
 dn ___,0,$000
 dn ___,0,$000
 dn ___,0,$000
 dn G_5,2,$000
 dn ___,0,$000
 dn ___,0,$000
 dn ___,0,$000
 dn G_5,2,$000
 dn ___,0,$000
 dn ___,0,$000
 dn ___,0,$000
 dn G_5,2,$000
 dn ___,0,$000
 dn ___,0,$000
 dn ___,0,$E00
 dn ___,0,$000
 dn ___,0,$000
 dn ___,0,$000
 dn ___,0,$000
 dn ___,0,$000
 dn ___,0,$000
 dn ___,0,$000
 dn ___,0,$000
 dn ___,0,$000
 dn ___,0,$000
 dn ___,0,$000
 dn ___,0,$000
 dn ___,0,$000
 dn ___,0,$000
 dn ___,0,$000
 dn ___,0,$000
 dn ___,0,$000
 dn ___,0,$000
 dn ___,0,$000
 dn ___,0,$000
 dn G_6,2,$000
 dn ___,0,$000
 dn ___,0,$000
 dn ___,0,$000
 dn G_6,2,$000
 dn ___,0,$000
 dn ___,0,$000
 dn ___,0,$000
 dn G_6,2,$000
 dn ___,0,$000
 dn ___,0,$000
 dn ___,0,$E00

P43:
 dn G#4,6,$000
 dn G#5,6,$000
 dn D#5,6,$000
 dn G#5,6,$000
 dn G#4,6,$000
 dn G#5,6,$000
 dn D#5,6,$000
 dn G#5,6,$000
 dn G#4,6,$000
 dn G#5,6,$000
 dn D#5,6,$000
 dn G#5,6,$000
 dn G#4,6,$000
 dn G#5,6,$000
 dn D#5,6,$000
 dn G#5,6,$000
 dn G#4,6,$000
 dn A#5,6,$000
 dn D#5,6,$000
 dn A#5,6,$000
 dn G#4,6,$000
 dn A#5,6,$000
 dn D#5,6,$000
 dn A#5,6,$000
 dn G#4,6,$000
 dn A#5,6,$000
 dn D#5,6,$000
 dn A#5,6,$000
 dn G#4,6,$000
 dn A#5,6,$000
 dn D#5,6,$000
 dn A#5,6,$000
 dn G#4,6,$000
 dn G#5,6,$000
 dn D#5,6,$000
 dn G#5,6,$000
 dn G#4,6,$000
 dn G#5,6,$000
 dn D#5,6,$000
 dn G#5,6,$000
 dn G#4,6,$000
 dn G#5,6,$000
 dn D#5,6,$000
 dn G#5,6,$000
 dn G#4,6,$000
 dn G#5,6,$000
 dn D#5,6,$000
 dn G#5,6,$000
 dn G#4,6,$000
 dn A#5,6,$000
 dn D#5,6,$000
 dn A#5,6,$000
 dn G#4,6,$000
 dn A#5,6,$000
 dn D#5,6,$000
 dn A#5,6,$000
 dn G#4,6,$000
 dn A#5,6,$000
 dn D#5,6,$000
 dn A#5,6,$000
 dn G#4,6,$000
 dn A#5,6,$000
 dn D#5,6,$000
 dn A#5,6,$000

P44:
 dn D#7,3,$000
 dn ___,0,$000
 dn ___,0,$000
 dn ___,0,$000
 dn ___,0,$000
 dn ___,0,$000
 dn ___,0,$000
 dn C#6,3,$000
 dn D#7,3,$000
 dn ___,0,$000
 dn ___,0,$000
 dn ___,0,$000
 dn ___,0,$000
 dn ___,0,$000
 dn ___,0,$000
 dn B_5,3,$000
 dn D#7,3,$000
 dn ___,0,$000
 dn ___,0,$000
 dn ___,0,$000
 dn ___,0,$000
 dn ___,0,$000
 dn ___,0,$000
 dn C#6,3,$000
 dn D#7,3,$000
 dn ___,0,$000
 dn ___,0,$000
 dn ___,0,$000
 dn ___,0,$000
 dn ___,0,$000
 dn ___,0,$000
 dn ___,0,$000
 dn B_4,1,$000
 dn G#5,1,$000
 dn D#5,1,$000
 dn G#5,1,$000
 dn B_4,1,$000
 dn G#5,1,$000
 dn D#5,1,$000
 dn G#5,1,$000
 dn B_4,1,$000
 dn G#5,1,$000
 dn D#5,1,$000
 dn G#5,1,$000
 dn B_4,1,$000
 dn G#5,1,$000
 dn D#5,1,$000
 dn G#5,1,$000
 dn C_5,1,$000
 dn F#5,1,$000
 dn D#5,1,$000
 dn F#5,1,$000
 dn C_5,1,$000
 dn F#5,1,$000
 dn D#5,1,$000
 dn F#5,1,$000
 dn C_5,1,$000
 dn F#5,1,$000
 dn D#5,1,$000
 dn F#5,1,$000
 dn C_5,1,$000
 dn F#5,1,$000
 dn D#5,1,$000
 dn F#5,1,$000

P45:
 dn G#4,6,$000
 dn G#5,6,$000
 dn D#5,6,$000
 dn G#5,6,$000
 dn G#4,6,$000
 dn G#5,6,$000
 dn D#5,6,$000
 dn G#5,6,$000
 dn G#4,6,$000
 dn A#5,6,$000
 dn D#5,6,$000
 dn A#5,6,$000
 dn G#4,6,$000
 dn A#5,6,$000
 dn D#5,6,$000
 dn A#5,6,$000
 dn G#4,6,$000
 dn G#5,6,$000
 dn D#5,6,$000
 dn G#5,6,$000
 dn G#4,6,$000
 dn G#5,6,$000
 dn D#5,6,$000
 dn G#5,6,$000
 dn G#4,6,$000
 dn A#5,6,$000
 dn D#5,6,$000
 dn A#5,6,$000
 dn G#4,6,$000
 dn A#5,6,$000
 dn D#5,6,$000
 dn A#5,6,$000
 dn G#4,6,$000
 dn G#5,6,$000
 dn D#5,6,$000
 dn G#5,6,$000
 dn G#4,6,$000
 dn G#5,6,$000
 dn D#5,6,$000
 dn G#5,6,$000
 dn G#4,6,$000
 dn G#5,6,$000
 dn D#5,6,$000
 dn G#5,6,$000
 dn G#4,6,$000
 dn G#5,6,$000
 dn D#5,6,$000
 dn G#5,6,$000
 dn G#4,6,$000
 dn F#5,6,$000
 dn D#5,6,$000
 dn F#5,6,$000
 dn G#4,6,$000
 dn F#5,6,$000
 dn D#5,6,$000
 dn F#5,6,$000
 dn G#4,6,$000
 dn F#5,6,$000
 dn D#5,6,$000
 dn F#5,6,$000
 dn G#4,6,$000
 dn F#5,6,$000
 dn D#5,6,$000
 dn F#5,6,$000

P46:
 dn G#5,1,$000
 dn G#6,1,$000
 dn A_5,1,$000
 dn G#6,1,$000
 dn G#5,1,$000
 dn G#6,1,$000
 dn A_5,1,$000
 dn G#6,1,$000
 dn G#5,1,$000
 dn G#6,1,$000
 dn A_5,1,$000
 dn G#6,1,$000
 dn G#5,1,$000
 dn G#6,1,$000
 dn A_5,1,$000
 dn G#6,1,$000
 dn G#5,1,$000
 dn ___,0,$000
 dn ___,0,$000
 dn ___,0,$000
 dn G#4,2,$000
 dn ___,0,$000
 dn ___,0,$000
 dn ___,0,$000
 dn ___,0,$000
 dn ___,0,$000
 dn ___,0,$000
 dn ___,0,$000
 dn ___,0,$000
 dn ___,0,$000
 dn ___,0,$000
 dn ___,0,$000
 dn ___,0,$E00
 dn ___,0,$000
 dn ___,0,$000
 dn ___,0,$000
 dn ___,0,$000
 dn ___,0,$000
 dn ___,0,$000
 dn ___,0,$000
 dn ___,0,$000
 dn ___,0,$000
 dn ___,0,$000
 dn ___,0,$000
 dn ___,0,$000
 dn ___,0,$000
 dn ___,0,$000
 dn ___,0,$000
 dn ___,0,$000
 dn ___,0,$000
 dn ___,0,$000
 dn ___,0,$000
 dn ___,0,$000
 dn ___,0,$000
 dn ___,0,$000
 dn ___,0,$000
 dn ___,0,$000
 dn ___,0,$000
 dn ___,0,$000
 dn ___,0,$000
 dn ___,0,$000
 dn ___,0,$000
 dn ___,0,$000
 dn ___,0,$000

P47:
 dn C_5,2,$000
 dn ___,0,$000
 dn C#5,2,$000
 dn ___,0,$000
 dn C_5,2,$000
 dn ___,0,$000
 dn C#5,2,$000
 dn ___,0,$000
 dn C_5,2,$000
 dn ___,0,$000
 dn C#5,2,$000
 dn ___,0,$000
 dn C_5,2,$000
 dn ___,0,$000
 dn C#5,2,$000
 dn ___,0,$000
 dn C_5,2,$000
 dn ___,0,$000
 dn ___,0,$000
 dn ___,0,$000
 dn G#3,2,$000
 dn ___,0,$000
 dn ___,0,$000
 dn ___,0,$000
 dn ___,0,$000
 dn ___,0,$000
 dn ___,0,$000
 dn ___,0,$000
 dn ___,0,$000
 dn ___,0,$000
 dn ___,0,$000
 dn ___,0,$000
 dn ___,0,$E00
 dn ___,0,$000
 dn ___,0,$000
 dn ___,0,$000
 dn ___,0,$000
 dn ___,0,$000
 dn ___,0,$000
 dn ___,0,$000
 dn ___,0,$000
 dn ___,0,$000
 dn ___,0,$000
 dn ___,0,$000
 dn ___,0,$000
 dn ___,0,$000
 dn ___,0,$000
 dn ___,0,$000
 dn ___,0,$000
 dn ___,0,$000
 dn ___,0,$000
 dn ___,0,$000
 dn ___,0,$000
 dn ___,0,$000
 dn ___,0,$000
 dn ___,0,$000
 dn ___,0,$000
 dn ___,0,$000
 dn ___,0,$000
 dn ___,0,$000
 dn ___,0,$000
 dn ___,0,$000
 dn ___,0,$000
 dn ___,0,$000

P48:
 dn G#4,6,$000
 dn ___,0,$E03
 dn G#4,6,$000
 dn ___,0,$E03
 dn G#4,6,$000
 dn ___,0,$E03
 dn G#4,6,$000
 dn ___,0,$E03
 dn G#4,6,$000
 dn ___,0,$E03
 dn G#4,6,$000
 dn ___,0,$E03
 dn G#4,6,$000
 dn ___,0,$E03
 dn G#4,6,$000
 dn ___,0,$E03
 dn G#4,6,$000
 dn ___,0,$000
 dn ___,0,$000
 dn ___,0,$000
 dn G#3,6,$000
 dn ___,0,$000
 dn ___,0,$000
 dn ___,0,$000
 dn ___,0,$000
 dn ___,0,$000
 dn ___,0,$000
 dn ___,0,$000
 dn ___,0,$000
 dn ___,0,$000
 dn ___,0,$000
 dn ___,0,$000
 dn ___,0,$E00
 dn ___,0,$000
 dn ___,0,$000
 dn ___,0,$000
 dn ___,0,$000
 dn ___,0,$000
 dn ___,0,$000
 dn ___,0,$000
 dn ___,0,$000
 dn ___,0,$000
 dn ___,0,$000
 dn ___,0,$000
 dn ___,0,$000
 dn ___,0,$000
 dn ___,0,$000
 dn ___,0,$000
 dn ___,0,$000
 dn ___,0,$000
 dn ___,0,$000
 dn ___,0,$000
 dn ___,0,$000
 dn ___,0,$000
 dn ___,0,$000
 dn ___,0,$000
 dn ___,0,$000
 dn ___,0,$000
 dn ___,0,$000
 dn ___,0,$000
 dn ___,0,$000
 dn ___,0,$000
 dn ___,0,$000
 dn ___,0,$000

duty_instruments:
itSquareinst1: db 8,91,244,192
itSquareinst2: db 8,128,128,128
itSquareinst3: db 8,64,244,128
itSquareinst4: db 8,192,240,128
itSquareinst5: db 8,0,241,128
itSquareinst6: db 8,64,241,128
itSquareinst7: db 8,128,241,128
itSquareinst8: db 8,192,241,128
itSquareinst9: db 8,128,240,128
itSquareinst10: db 8,128,240,128
itSquareinst11: db 8,128,240,128
itSquareinst12: db 8,128,240,128
itSquareinst13: db 8,128,240,128
itSquareinst14: db 8,128,240,128
itSquareinst15: db 8,128,240,128


wave_instruments:
itWaveinst1: db 0,32,0,128
itWaveinst2: db 0,32,1,128
itWaveinst3: db 0,32,2,128
itWaveinst4: db 0,32,3,128
itWaveinst5: db 0,32,4,128
itWaveinst6: db 0,32,5,128
itWaveinst7: db 0,32,6,128
itWaveinst8: db 0,32,7,128
itWaveinst9: db 0,32,8,128
itWaveinst10: db 0,32,9,128
itWaveinst11: db 0,32,10,128
itWaveinst12: db 0,32,11,128
itWaveinst13: db 0,32,12,128
itWaveinst14: db 0,32,13,128
itWaveinst15: db 0,32,14,128


noise_instruments:
itNoiseinst1: db 240,0,0,0,0,0,0,0
itNoiseinst2: db 240,0,0,0,0,0,0,0
itNoiseinst3: db 240,0,0,0,0,0,0,0
itNoiseinst4: db 240,0,0,0,0,0,0,0
itNoiseinst5: db 240,0,0,0,0,0,0,0
itNoiseinst6: db 240,0,0,0,0,0,0,0
itNoiseinst7: db 240,0,0,0,0,0,0,0
itNoiseinst8: db 240,0,0,0,0,0,0,0
itNoiseinst9: db 240,0,0,0,0,0,0,0
itNoiseinst10: db 240,0,0,0,0,0,0,0
itNoiseinst11: db 240,0,0,0,0,0,0,0
itNoiseinst12: db 240,0,0,0,0,0,0,0
itNoiseinst13: db 240,0,0,0,0,0,0,0
itNoiseinst14: db 240,0,0,0,0,0,0,0
itNoiseinst15: db 240,0,0,0,0,0,0,0


routines:
__hUGE_Routine_0:

__end_hUGE_Routine_0:
ret

__hUGE_Routine_1:

__end_hUGE_Routine_1:
ret

__hUGE_Routine_2:

__end_hUGE_Routine_2:
ret

__hUGE_Routine_3:

__end_hUGE_Routine_3:
ret

__hUGE_Routine_4:

__end_hUGE_Routine_4:
ret

__hUGE_Routine_5:

__end_hUGE_Routine_5:
ret

__hUGE_Routine_6:

__end_hUGE_Routine_6:
ret

__hUGE_Routine_7:

__end_hUGE_Routine_7:
ret

__hUGE_Routine_8:

__end_hUGE_Routine_8:
ret

__hUGE_Routine_9:

__end_hUGE_Routine_9:
ret

__hUGE_Routine_10:

__end_hUGE_Routine_10:
ret

__hUGE_Routine_11:

__end_hUGE_Routine_11:
ret

__hUGE_Routine_12:

__end_hUGE_Routine_12:
ret

__hUGE_Routine_13:

__end_hUGE_Routine_13:
ret

__hUGE_Routine_14:

__end_hUGE_Routine_14:
ret

__hUGE_Routine_15:

__end_hUGE_Routine_15:
ret

waves:
wave0: db 0,0,255,255,255,255,255,255,255,255,255,255,255,255,255,255
wave1: db 0,0,0,0,255,255,255,255,255,255,255,255,255,255,255,255
wave2: db 0,0,0,0,0,0,0,0,255,255,255,255,255,255,255,255
wave3: db 0,0,0,0,0,0,0,0,0,0,0,0,255,255,255,255
wave4: db 0,1,18,35,52,69,86,103,120,137,154,171,188,205,222,239
wave5: db 254,220,186,152,118,84,50,16,18,52,86,120,154,188,222,255
wave6: db 122,205,219,117,33,19,104,189,220,151,65,1,71,156,221,184
wave7: db 15,15,15,15,15,15,15,15,15,15,15,15,15,15,15,15
wave8: db 254,252,250,248,246,244,242,240,242,244,246,248,250,252,254,255
wave9: db 254,221,204,187,170,153,136,119,138,189,241,36,87,138,189,238
wave10: db 132,17,97,237,87,71,90,173,206,163,23,121,221,32,3,71
wave11: db 109,10,212,179,211,146,228,220,135,17,28,135,28,126,198,177
wave12: db 29,124,225,52,24,37,106,59,222,212,173,97,10,204,180,52
wave13: db 0,133,87,93,221,129,201,125,112,56,198,216,66,10,177,138
wave14: db 78,147,51,168,92,21,71,76,107,148,197,88,133,227,170,105
wave15: db 92,211,85,109,140,19,224,92,27,6,68,232,49,105,45,100

