include "include/hUGE.inc"

SECTION "Song Data - Totaka", ROMX

totaka::
db 20
dw order_cnt
dw order1, order2, order3, order4
dw duty_instruments, wave_instruments, noise_instruments
dw routines
dw waves

order_cnt: db 2
order1: dw P0
order2: dw P1
order3: dw P2
order4: dw P3

P0:
 dn C_5,1,$F24
 dn C_5,1,$F08
 dn D_5,1,$000
 dn E_5,1,$F24
 dn D_5,1,$F12
 dn C_5,1,$F32
 dn G_5,1,$000
 dn E_5,1,$000
 dn C_6,1,$000
 dn G_5,1,$F64
 dn G_5,1,$F24
 dn G_5,1,$F08
 dn G#5,1,$000
 dn G_5,1,$F24
 dn F#5,1,$F12
 dn D#5,1,$F64
 dn D_5,1,$F32
 dn G_5,1,$000
 dn C_5,1,$F64
 dn ___,0,$B00

P1:
 dn ___,0,$000
 dn ___,0,$000
 dn ___,0,$000
 dn ___,0,$000
 dn ___,0,$000
 dn ___,0,$000
 dn ___,0,$000
 dn ___,0,$000
 dn ___,0,$000
 dn ___,0,$000
 dn ___,0,$000
 dn ___,0,$000
 dn ___,0,$000
 dn ___,0,$000
 dn ___,0,$000
 dn ___,0,$000
 dn ___,0,$000
 dn ___,0,$000
 dn ___,0,$000
 dn ___,0,$000

P2:
 dn ___,0,$000
 dn ___,0,$000
 dn ___,0,$000
 dn ___,0,$000
 dn ___,0,$000
 dn ___,0,$000
 dn ___,0,$000
 dn ___,0,$000
 dn ___,0,$000
 dn ___,0,$000
 dn ___,0,$000
 dn ___,0,$000
 dn ___,0,$000
 dn ___,0,$000
 dn ___,0,$000
 dn ___,0,$000
 dn ___,0,$000
 dn ___,0,$000
 dn ___,0,$000
 dn ___,0,$000

P3:
 dn ___,0,$000
 dn ___,0,$000
 dn ___,0,$000
 dn ___,0,$000
 dn ___,0,$000
 dn ___,0,$000
 dn ___,0,$000
 dn ___,0,$000
 dn ___,0,$000
 dn ___,0,$000
 dn ___,0,$000
 dn ___,0,$000
 dn ___,0,$000
 dn ___,0,$000
 dn ___,0,$000
 dn ___,0,$000
 dn ___,0,$000
 dn ___,0,$000
 dn ___,0,$000
 dn ___,0,$000

duty_instruments:
itSquareinst1: db 8,128,242,128

wave_instruments:
noise_instruments:
routines:
waves:
db